<?xml version="1.0" encoding="UTF-8" standalone="no"?>
<!-- Created with Inkscape (http://www.inkscape.org/) -->

<svg
   width="64"
   height="64"
   viewBox="0 0 16.933333 16.933333"
   version="1.1"
   id="svg5"
   inkscape:version="1.2.2 (b0a8486541, 2022-12-01)"
   sodipodi:docname="icons-master.svg"
   xmlns:inkscape="http://www.inkscape.org/namespaces/inkscape"
   xmlns:sodipodi="http://sodipodi.sourceforge.net/DTD/sodipodi-0.dtd"
   xmlns="http://www.w3.org/2000/svg"
   xmlns:svg="http://www.w3.org/2000/svg">
  <sodipodi:namedview
     id="namedview7"
     pagecolor="#505050"
     bordercolor="#eeeeee"
     borderopacity="1"
     inkscape:showpageshadow="0"
     inkscape:pageopacity="0"
     inkscape:pagecheckerboard="0"
     inkscape:deskcolor="#505050"
     inkscape:document-units="px"
     showgrid="false"
     inkscape:zoom="5.5945567"
     inkscape:cx="19.483224"
     inkscape:cy="29.761071"
     inkscape:window-width="1878"
     inkscape:window-height="1011"
     inkscape:window-x="0"
     inkscape:window-y="0"
     inkscape:window-maximized="1"
     inkscape:current-layer="layer1">
    <inkscape:grid
       type="xygrid"
       id="grid2853"
       originx="0"
       originy="0" />
  </sodipodi:namedview>
  <defs
     id="defs2">
    <inkscape:path-effect
       effect="roughen"
       id="path-effect5274"
       is_visible="true"
       lpeversion="1.2"
       method="size"
       max_segment_size="0.183562"
       segments="2"
       displace_x="0.0781966;1"
       displace_y="0.0611874;1"
       global_randomize="1;1"
       handles="along"
       shift_nodes="true"
       fixed_displacement="false"
       spray_tool_friendly="false" />
    <inkscape:path-effect
       effect="roughen"
       id="path-effect5270"
       is_visible="false"
       lpeversion="1.2"
       method="size"
       max_segment_size="0.115735"
       segments="2"
       displace_x="0.0760609;1"
       displace_y="0.0385783;1"
       global_randomize="1;1"
       handles="along"
       shift_nodes="true"
       fixed_displacement="false"
       spray_tool_friendly="false" />
    <inkscape:path-effect
       effect="roughen"
       id="path-effect3040"
       is_visible="true"
       lpeversion="1.2"
       method="size"
       max_segment_size="0.332839"
       segments="2"
       displace_x="0.112059;1"
       displace_y="0.110946;1"
       global_randomize="1;1"
       handles="along"
       shift_nodes="true"
       fixed_displacement="false"
       spray_tool_friendly="false" />
    <inkscape:path-effect
       effect="roughen"
       id="path-effect3000"
       is_visible="true"
       lpeversion="1.2"
       method="size"
       max_segment_size="0.183562"
       segments="2"
       displace_x="0.0781966;1"
       displace_y="0.0611874;1"
       global_randomize="1;1"
       handles="along"
       shift_nodes="true"
       fixed_displacement="false"
       spray_tool_friendly="false" />
    <inkscape:path-effect
       effect="roughen"
       id="path-effect2851"
       is_visible="true"
       lpeversion="1.2"
       method="size"
       max_segment_size="0.314279"
       segments="2"
       displace_x="0.10476;1"
       displace_y="0.10476;1"
       global_randomize="1;1"
       handles="along"
       shift_nodes="true"
       fixed_displacement="false"
       spray_tool_friendly="false" />
    <inkscape:path-effect
       effect="roughen"
       id="path-effect2849"
       is_visible="false"
       lpeversion="1.2"
       method="size"
       max_segment_size="0.115735"
       segments="2"
       displace_x="0.0760609;1"
       displace_y="0.0385783;1"
       global_randomize="1;1"
       handles="along"
       shift_nodes="true"
       fixed_displacement="false"
       spray_tool_friendly="false" />
  </defs>
  <g
     inkscape:label="Layer 1"
     inkscape:groupmode="layer"
     id="layer1">
    <g
       id="g2998"
       transform="translate(3.3092966e-4,0.35840008)"
       inkscape:path-effect="#path-effect3000"
       inkscape:label="Rain_icon"
       style="stroke-width:0.79375;stroke-dasharray:none">
      <g
         id="g2842"
         style="fill:#ffffff;fill-opacity:1;stroke-width:0.772936;stroke-dasharray:none"
         transform="matrix(1.0280749,0,0,1.0257843,-0.45796138,0.35992147)"
         inkscape:label="Cloud">
        <path
           id="path2776"
           style="fill:none;fill-opacity:1;stroke:#ffffff;stroke-width:0.772936;stroke-linejoin:round;stroke-dasharray:none;paint-order:markers fill stroke"
           d="m 9.3790889,2.5698952 c -0.060747,2.589e-4 -0.125516,-0.00246 -0.1855553,0.00158 -0.070332,-0.012466 -0.067528,0.015889 -0.1227111,0.022946 -0.029361,0.016081 -0.1569028,0.00888 -0.2291241,0.023859 -0.066331,-0.00118 -0.120618,0.016031 -0.1754245,0.030917 -0.064677,0.00619 -0.1105171,0.030949 -0.1644793,0.049257 -0.056664,0.01826 -0.099277,0.044865 -0.153741,0.067284 -0.045212,0.028659 -0.1272965,0.031089 -0.1827525,0.058155 -0.065531,0.00747 -0.079863,0.058948 -0.1297291,0.087324 -0.032896,0.038466 -0.109648,0.064931 -0.1631399,0.1000617 -0.048533,0.032072 -0.084577,0.070632 -0.1315485,0.1054958 -0.036272,0.041025 -0.094097,0.073537 -0.1406206,0.1121512 -0.043233,0.037705 -0.0868,0.075929 -0.129838,0.1156532 -0.040944,0.039901 -0.1011619,0.045643 -0.1421743,0.087746 -0.060236,0.010366 -0.099922,0.072387 -0.1405911,0.1222584 -0.052463,0.027199 -0.05577,0.099691 -0.090752,0.1525184 -0.01376,0.052349 -0.066485,0.1058296 -0.099101,0.1603424 -0.029197,0.051805 -0.058395,0.1036191 -0.086904,0.1557737 -0.027207,0.053958 -0.053352,0.1080826 -0.079772,0.1610882 -0.027492,0.055157 0.008,0.1109293 -0.014739,0.1654368 C 6.7746642,4.3113055 6.7231543,4.2341304 6.6778589,4.1991354 6.6320072,4.1293636 6.6059961,4.144093 6.5659461,4.1178725 6.5204409,4.0867413 6.4651031,4.0555721 6.4113912,4.0271807 6.3607647,4.0009047 6.3429063,3.985961 6.287626,3.9624902 6.2608256,3.9471217 6.1530065,3.9052841 6.0825571,3.8827786 6.0267414,3.8609276 5.9713707,3.8470126 5.914561,3.833041 5.8578718,3.8166679 5.7959892,3.7986812 5.7385856,3.7885216 5.6777443,3.770143 5.6187973,3.7625873 5.5635384,3.7572683 c -0.06452,-0.014152 -0.1140207,-0.0277 -0.1674665,-0.02757 -0.056727,1.377e-4 -0.113687,0.018913 -0.1707623,0.019112 -0.05939,2.197e-4 -0.1195859,0.00157 -0.1777885,0.00639 -0.059177,0.00357 -0.1228081,-0.017599 -0.1792871,-0.00843 -0.064511,-0.020206 -0.070958,0.030957 -0.1261145,0.044565 -0.026141,0.027034 -0.1249589,0.043156 -0.1905675,0.066151 -0.045559,0.025835 -0.091579,0.051308 -0.1451096,0.07486 -0.036268,0.034368 -0.068202,0.053317 -0.1207506,0.081297 -0.017942,0.034094 -0.1290995,0.044881 -0.1846925,0.080204 -0.060234,0.010044 -0.076417,0.065082 -0.1202356,0.097197 -0.032021,0.039219 -0.1036233,0.026822 -0.1475712,0.063752 -0.059156,-0.00311 -0.087639,0.083666 -0.1314178,0.1268815 -0.035095,0.042055 -0.048455,0.080014 -0.08537,0.1218366 -0.011053,0.046257 -0.089742,0.082813 -0.1273428,0.1315249 -0.044488,0.034051 -0.046835,0.1001438 -0.07811,0.1466892 -0.011309,0.057117 -0.068549,0.087005 -0.097272,0.1352731 -0.036145,0.041643 -0.058787,0.095336 -0.084471,0.1456051 -0.028408,0.047894 -0.066397,0.065159 -0.088557,0.1171519 -0.042334,0.023747 -0.058748,0.1073222 -0.077975,0.1720264 -0.028301,0.043099 -0.045167,0.089829 -0.056558,0.1522023 -0.025343,0.034304 -0.024008,0.1110079 -0.028181,0.1813515 -0.00902,0.040675 -0.0068,0.089325 -0.00595,0.1567059 8.225e-4,0.064961 0.00447,0.151112 0.00459,0.2035285 1.385e-4,0.060648 0.00409,0.1218488 0.00873,0.1813954 0.00612,0.060179 0.071466,0.127257 0.080338,0.1851101 0.067889,0.060535 0.041592,0.1048858 0.052345,0.1546654 0.035842,0.056181 0.017667,0.052023 0.032096,0.1031952 0.013167,0.017657 0.040809,0.1373015 0.066216,0.2049977 0.01815,0.05081 0.054754,0.1129293 0.077823,0.163921 0.034492,0.054683 0.041131,0.090108 0.064636,0.1348311 0.023866,0.047578 0.084463,0.1050016 0.1134376,0.1522395 0.055741,0.047558 0.050941,0.080003 0.077558,0.1185615 0.031395,0.04493 0.095977,0.094148 0.1293275,0.1363231 0.061591,0.042109 0.056599,0.070043 0.086658,0.1041626 0.034964,0.039894 0.062644,0.066689 0.1011238,0.1047441 0.031605,0.027979 0.1048635,0.089191 0.1505105,0.1276079 0.055259,0.037933 0.080532,0.064951 0.1193106,0.093401 0.047898,0.03493 0.097276,0.0677 0.1416416,0.095148 0.054789,0.034012 0.1061085,0.062461 0.1510159,0.085292 0.062609,0.033104 0.1276208,0.052857 0.1723928,0.070733 0.080783,0.026921 0.068692,0.0022 0.1087596,0.01436 0.04642,-0.010531 0.1245504,0.038483 0.1885581,0.053367 0.057698,0.015277 0.097709,0.00742 0.1554569,0.013997 0.055189,0.00628 0.1654323,0.02936 0.228352,0.02927 0.045186,-3.396e-4 0.1206078,0.0095 0.1552127,0.00517 0.034605,-0.00434 0.028393,-0.041206 0.073215,-0.047062 l 0.1706934,-0.00382 0.2033504,0.0023 0.1482194,-0.00367 0.1761121,-0.04009 0.1796241,0.00318 0.1861072,0.00746 0.1564683,-0.011694 0.1725169,-0.00857 0.2244978,0.015359 0.1277475,-0.00646 0.1730974,-0.00506 0.1819556,0.00194 0.1773735,0.00233 0.1859833,0.00381 0.146922,-0.02518 0.1899093,-0.012367 0.2196989,0.01562 0.1291745,-0.035521 0.1779776,-6.13e-4 0.1756948,0.00507 0.2173723,0.018716 0.1257891,-0.00259 0.2125279,0.01813 0.138864,-2.136e-4 0.1731454,-0.041573 0.1693538,-0.00981 0.238196,0.0131 0.15642,0.014835 0.151594,0.010492 0.181076,0.011144 0.168423,0.011603 0.168267,0.00734 0.211438,0.013596 0.172746,0.012367 0.179105,0.00428 0.191344,0.00994 0.132177,0.011734 0.168679,0.00757 0.162727,-0.00167 0.173728,-0.00744 0.197254,0.016749 0.162142,-8.76e-4 c -0.005,-0.00308 -0.0148,-0.028823 -0.0148,-0.028823 0.06011,-7.01e-5 0.118004,-0.00624 0.176402,-0.012827 0.05721,-0.00937 0.11582,-0.017164 0.172375,-0.029987 0.05571,-0.013497 0.102609,-0.043791 0.156399,-0.062344 0.04535,-0.033969 0.107019,-0.04008 0.158379,-0.064056 0.05039,-0.023524 0.104233,-0.046672 0.151519,-0.075013 0.05166,-0.025172 0.0851,-0.064318 0.128323,-0.096841 0.03761,-0.039318 0.09981,-0.06132 0.14022,-0.09896 0.05245,-0.029151 0.0903,-0.067106 0.125151,-0.1079616 0.04951,-0.033539 0.09297,-0.07439 0.123039,-0.120873 0.0548,-0.035393 0.05706,-0.097988 0.08002,-0.1503577 0.02245,-0.052265 0.09663,-0.1007568 0.112549,-0.1565451 0.07066,-0.050742 0.03053,-0.1095921 0.03177,-0.1694249 0.0095,-0.052774 -0.0098,-0.1232128 -0.01557,-0.1839742 -0.0055,-0.058624 -0.0073,-0.113731 -0.0073,-0.1713209 l 0.0011,-0.00691 c -2.67e-4,-0.060083 0.0013,-0.1155925 -0.0057,-0.1738329 -0.0019,-0.056115 -0.01993,-0.1210487 -0.03395,-0.1786009 -0.01541,-0.057513 -0.03186,-0.1162022 -0.05111,-0.1688139 -0.02073,-0.058296 -0.04919,-0.1212633 -0.07307,-0.1696302 -0.03086,-0.064365 -0.04365,-0.086307 -0.06935,-0.1275749 -0.02817,-0.047782 -0.06506,-0.096491 -0.100254,-0.1406434 -0.03668,-0.045053 -0.07755,-0.096541 -0.116506,-0.1354296 -0.04317,-0.048977 -0.07977,-0.074924 -0.120251,-0.107236 -0.04694,-0.037645 -0.04557,-0.061019 -0.09198,-0.089828 -0.01592,-0.031197 -0.123294,-0.07492 -0.190194,-0.1026942 -0.05304,-0.02806 -0.08154,-0.027289 -0.135948,-0.042799 -0.0378,-0.00502 -0.13913,-0.056056 -0.205802,-0.068652 -0.06833,-0.033775 -0.05887,-3.406e-4 -0.110606,-9.06e-4 -0.05944,-6.496e-4 -0.163967,-0.010352 -0.223758,-0.010135 -0.05039,2.47e-4 -0.100757,0.00289 -0.150857,0.00804 -0.05011,0.00509 -0.0969,0.013214 -0.14624,0.02324 -0.04674,0.010578 -0.100124,0.022134 -0.149425,0.037046 -0.04841,0.014644 -0.08864,0.03706 -0.134629,0.056505 -6.97e-4,-0.060631 -0.0021,-0.1199595 -0.0065,-0.1796342 -0.0033,-0.059159 -0.01214,-0.1743629 -0.02022,-0.2332972 -0.007,-0.095457 -0.01149,-0.080562 -0.01874,-0.1205224 -0.01004,-0.057769 -0.03485,-0.1291252 -0.04885,-0.1857839 -0.02469,-0.064965 -0.01997,-0.097495 -0.03538,-0.1475372 -0.01093,-0.053008 -0.01542,-0.105204 -0.03666,-0.1609724 -8.34e-4,-0.050421 -0.05191,-0.1218325 -0.07853,-0.1791937 -0.02813,-0.05465 -0.05253,-0.1112649 -0.07904,-0.1602444 -0.02956,-0.057982 -0.0565,-0.1118156 -0.08479,-0.1573834 -0.0312,-0.061977 -0.06498,-0.096576 -0.09466,-0.1387502 -0.03972,-0.052909 -0.03775,-0.081512 -0.0707,-0.1228974 -0.01535,-0.045824 -0.07858,-0.098 -0.122153,-0.1451049 -0.03656,-0.042106 -0.06932,-0.077464 -0.111997,-0.1178194 -0.03332,-0.03534 -0.04501,-0.074665 -0.09328,-0.1143059 -0.0086,-0.036337 -0.122934,-0.099875 -0.183156,-0.1414286 -0.05301,-0.040755 -0.08909,-0.060432 -0.13468,-0.088113 -0.04964,-0.031095 -0.08771,-0.055762 -0.138477,-0.082546 -0.0431,-0.026437 -0.09036,-0.050031 -0.146516,-0.075301 -0.03935,-0.020838 -0.06398,-0.04742 -0.124548,-0.070229 -0.01519,-0.022706 -0.104124,-0.037736 -0.178075,-0.059366 -0.02958,-0.00741 -0.117606,-0.028975 -0.188085,-0.045423 -0.04434,-0.00609 -0.09165,-0.015325 -0.15548,-0.027685 -0.03392,-4.772e-4 -0.1455212,-0.035592 -0.2156885,-0.04705 -0.065505,-0.019312 -0.076794,-0.013227 -0.1303562,-0.019211 -0.033735,-0.00427 -0.1539936,-0.038937 -0.2245315,-0.043012 -0.065602,-0.00379 -0.124515,0.00826 -0.1765139,0.00843 z"
           inkscape:path-effect="#path-effect2849"
           inkscape:original-d="M 9.389091,2.5812378 A 2.8710701,2.8710701 0 0 0 6.7515259,4.3470215 2.260253,2.3075662 0 0 0 5.2296549,3.7527425 2.260253,2.3075662 0 0 0 2.977596,6.0657796 2.260253,2.3075662 0 0 0 5.2410238,8.3679647 2.260253,2.3075662 0 0 0 5.5112915,8.3493612 h 7.3504555 a 1.5251989,1.5251989 0 0 0 0.0016,0 1.5251989,1.5251989 0 0 0 1.523421,-1.5249716 v -0.00775 A 1.5251989,1.5251989 0 0 0 12.856063,5.2989014 1.5251989,1.5251989 0 0 0 12.269535,5.4193075 2.8710701,2.8710701 0 0 0 9.389091,2.5812378 Z" />
      </g>
      <path
         style="fill:none;fill-opacity:1;stroke:#ffffff;stroke-width:0.79375;stroke-linecap:round;stroke-linejoin:round;stroke-dasharray:none;stroke-opacity:1;paint-order:markers fill stroke"
         d="m 6.1195471,10.349222 -0.079124,0.153212 -0.053964,0.159103 -0.1037148,0.16139 -0.087611,0.156537 -0.1059796,0.108612 -0.1025975,0.177732 -0.07799,0.160093 -0.080165,0.157621 -0.1019446,0.140495 -0.084772,0.159412 -0.092061,0.150394 -0.074763,0.160058"
         id="path2987"
         inkscape:original-d="m 6.1195471,10.349222 -1.0603558,1.83659" />
      <path
         style="fill:none;fill-opacity:1;stroke:#ffffff;stroke-width:0.79375;stroke-linecap:round;stroke-linejoin:round;stroke-dasharray:none;stroke-opacity:1;paint-order:markers fill stroke"
         d="m 9.0165104,11.389919 -0.060617,0.153472 -0.1094082,0.143433 -0.089319,0.165337 -0.072698,0.162567 -0.07806,0.153086 -0.063982,0.168654 -0.1039043,0.145901 -0.1001409,0.136002 -0.1012809,0.133387 -0.1034734,0.168538 -0.073105,0.158405 -0.096526,0.151321"
         id="path2989"
         inkscape:original-d="m 9.0165104,11.389919 -1.0603558,1.83659" />
      <path
         style="fill:none;fill-opacity:1;stroke:#ffffff;stroke-width:0.79375;stroke-linecap:round;stroke-linejoin:round;stroke-dasharray:none;stroke-opacity:1;paint-order:markers fill stroke"
         d="m 11.913474,10.349222 -0.09025,0.114968 -0.09198,0.18664 -0.08861,0.153556 -0.103689,0.126134 -0.09624,0.153204 -0.08866,0.168366 -0.0853,0.153875 -0.09141,0.149034 -0.08077,0.160411 -0.07813,0.15763 -0.07985,0.157129 -0.08005,0.157156"
         id="path2991"
         inkscape:original-d="m 11.913474,10.349222 -1.060356,1.83659" />
    </g>
    <g
       id="g3036"
       inkscape:path-effect="#path-effect3040"
       transform="matrix(0.93201286,0,0,0.94245303,0.48907149,0.69611139)"
       inkscape:label="square"
       style="stroke-width:0.999942;stroke-dasharray:none">
      <path
         style="fill:none;fill-opacity:1;stroke:#ffffff;stroke-width:0.999942;stroke-linecap:round;stroke-linejoin:round;stroke-dasharray:none;stroke-opacity:1;paint-order:markers fill stroke"
         d="m 0.15198414,0 0.30547344,-0.03019121 0.41272238,0.01308499 0.24607484,-0.02341982 0.3282138,-0.01545603 0.3395903,-6.202e-5 0.3451684,0.01086364 0.2885353,-0.03195182 0.380514,0.01484346 0.2936524,0.0014772 0.3440336,0.01111672 0.311259,0.0020111 0.3272604,0.0015221 0.299896,-0.06394471 0.3314358,-0.0356559 0.3769366,0.005707 0.2983626,0.005272 0.3272723,0.005643 0.3294627,0.0074 0.4165163,0.008689 0.2193004,-0.0726877 0.3479318,0.0100556 0.3219471,0.008769 0.3799139,0.0286887 0.2677753,-0.003905 0.3278876,7.1217e-4 0.3198204,-0.0102793 0.3223215,-0.009995 0.3339709,-0.0319622 0.3266408,0.001271 0.3311466,0.006651 0.3169934,-0.0458154 0.402552,0.0312146 0.277959,0.0206126 0.338008,0.0289146 0.357144,0.014376 0.246004,-0.0282105 0.370451,0.0218794 0.286573,-0.0691332 0.35685,0.0233258 0.361908,0.0167299 0.267451,-0.004759 0.372152,0.0386123 0.283867,0.001677 0.333736,0.013344 0.305426,-0.0495183 0.341931,0.002487 0.324215,-0.0197172 0.345025,0.009164 0.331934,-0.0183747 0.336634,0.0682572 0.301201,0.13263861"
         id="path3016"
         inkscape:original-d="M 0.15198414,0 H 16.808798" />
      <path
         style="fill:none;fill-opacity:1;stroke:#ffffff;stroke-width:0.999942;stroke-linecap:round;stroke-linejoin:round;stroke-dasharray:none;stroke-opacity:1;paint-order:markers fill stroke"
         d="m 16.808798,0 0.08851,0.35070883 0.03435,0.32209298 -0.01226,0.22898646 -0.0054,0.42680063 0.01761,0.3518005 -0.0057,0.3142391 0.04299,0.3496078 -0.0028,0.3206053 0.04485,0.3434571 -0.0068,0.320566 -0.02119,0.3087446 0.0218,0.3710459 0.0029,0.3281393 0.01143,0.3393336 0.02172,0.3399652 0.0517,0.3331288 -0.02712,0.2628364 -0.0027,0.390093 -0.02296,0.3001378 0.05361,0.3686452 0.05068,0.3503412 -0.01089,0.2783396 -0.01909,0.3585667 0.02382,0.3431712 -0.01672,0.3240322 -0.01525,0.2639641 -0.01135,0.4104643 0.0078,0.3407664 -0.02007,0.2987374 -0.02495,0.3365042 0.0485,0.3753392 -0.02244,0.298481 -0.02652,0.332614 -0.01573,0.343734 -0.01168,0.333013 0.0044,0.335261 -0.03825,0.280263 -0.0176,0.351147 0.04852,0.383434 -0.02203,0.24558 -0.02423,0.391116 -0.01984,0.34183 0.04337,0.357133 -0.03573,0.303137 0.01878,0.364645 -0.04053,0.306855 -0.0439,0.248863 -0.05733,0.380779 0.05133,0.368712 -0.04398,0.340887"
         id="path3022"
         inkscape:original-d="M 16.808798,0 V 16.641928" />
      <path
         style="fill:none;fill-opacity:1;stroke:#ffffff;stroke-width:0.999942;stroke-linecap:round;stroke-linejoin:round;stroke-dasharray:none;stroke-opacity:1;paint-order:markers fill stroke"
         d="m 16.808798,16.641928 -0.316053,0.008 -0.316761,0.0077 -0.335498,0.0095 -0.335676,0.0017 -0.272488,0.01307 -0.329137,0.01381 -0.319876,-4.38e-4 -0.302385,0.01013 -0.3893,0.01493 -0.335593,0.0082 -0.344656,-0.007 -0.328424,-0.01916 -0.293887,0.01757 -0.345422,0.0035 -0.350802,-0.05014 -0.311537,-0.0059 -0.325228,-0.0021 -0.338709,-0.02913 -0.313566,1.68e-4 -0.319356,0.0055 -0.3437239,-0.01106 -0.2975435,0.01454 -0.325663,0.0158 -0.3112032,0.02184 -0.3626675,-0.0022 -0.2455323,0.0085 -0.3949143,0.0068 -0.3470016,-0.01203 -0.3205674,-0.0041 -0.3249351,-0.0025 -0.3182157,0.0053 -0.3373607,-0.0065 -0.3265273,-0.01499 -0.336862,-0.03864 -0.310346,0.0022 -0.3326409,-0.0022 -0.3325544,-0.02117 -0.3236204,-0.0035 -0.2587627,0.01227 -0.3914975,-0.0098 -0.2907528,0.02629 -0.3799261,-0.04212 -0.2364821,0.03058 -0.3933836,0.0049 -0.3291932,0.003 -0.3220541,0.004 -0.331429,0.0021 -0.3155813,0.01239 -0.33532029,0.0017 -0.33039663,-0.102734 -0.32376095,0.101934"
         id="path3024"
         inkscape:original-d="M 16.808798,16.641928 H 0.15328586" />
      <path
         style="fill:none;fill-opacity:1;stroke:#ffffff;stroke-width:0.999942;stroke-linecap:round;stroke-linejoin:round;stroke-dasharray:none;stroke-opacity:1;paint-order:markers fill stroke"
         d="m 0,16.641328 -0.01767337,-0.358152 0.01035028,-0.299027 0.0323022,-0.324436 -0.0072982,-0.356952 -0.0061334,-0.345305 -0.00593222,-0.346467 -0.01353768,-0.316971 0.03650639,-0.307073 0.0041145,-0.339335 0.01658096,-0.320996 0.06774312,-0.329471 -0.01721339,-0.370769 -0.0040079,-0.315506 0.01308896,-0.326282 0.0240552,-0.327043 0.0742858,-0.337332 0.0464633,-0.318837 0.0157838,-0.341592 0.0379935,-0.325975 L 0.28115351,9.95671 0.32038413,9.6501275 0.28837205,9.2615292 0.26479611,8.9565165 0.26885347,8.646228 0.31193972,8.3172042 0.29506216,7.9686537 0.29007107,7.6507935 0.25698581,7.2355714 0.24733838,6.9799528 0.24982528,6.6603281 0.25034619,6.3259728 0.22277875,5.9634809 0.21887813,5.6565656 0.20450762,5.3159736 0.21422994,4.9996525 0.23905359,4.6517993 0.20440483,4.2784166 0.19727242,3.989455 0.20409788,3.6697378 0.20327764,3.3206298 0.22785769,3.0081205 0.19643198,2.6338369 0.17025039,2.2883498 0.14634281,1.9384808 0.12130294,1.6509846 0.11986046,1.3333945 0.10027248,0.99684659 0.06357867,0.58993525 0.05064655,0.33732413 -4.0011301e-4,-0.00154054"
         id="path3030"
         inkscape:original-d="M 0,16.641328 V 0" />
    </g>
    <g
       id="g5266"
       transform="translate(3.3092966e-4,0.35840008)"
       inkscape:path-effect="#path-effect5274"
       inkscape:label="Storm_icon"
       style="stroke-width:0.79375;stroke-dasharray:none">
      <g
         id="g5258"
         style="fill:#ffffff;fill-opacity:1;stroke-width:0.772936;stroke-dasharray:none"
         transform="matrix(1.0280749,0,0,1.0257843,-0.45796138,0.35992147)"
         inkscape:label="Cloud">
        <path
           id="path5256"
           style="fill:none;fill-opacity:1;stroke:#ffffff;stroke-width:0.772936;stroke-linejoin:round;stroke-dasharray:none;paint-order:markers fill stroke"
           d="m 9.3790889,2.5698952 c -0.060747,2.589e-4 -0.125516,-0.00246 -0.1855553,0.00158 -0.070332,-0.012466 -0.067528,0.015889 -0.1227111,0.022946 -0.029361,0.016081 -0.1569028,0.00888 -0.2291241,0.023859 -0.066331,-0.00118 -0.120618,0.016031 -0.1754245,0.030917 -0.064677,0.00619 -0.1105171,0.030949 -0.1644793,0.049257 -0.056664,0.01826 -0.099277,0.044865 -0.153741,0.067284 -0.045212,0.028659 -0.1272965,0.031089 -0.1827525,0.058155 -0.065531,0.00747 -0.079863,0.058948 -0.1297291,0.087324 -0.032896,0.038466 -0.109648,0.064931 -0.1631399,0.1000617 -0.048533,0.032072 -0.084577,0.070632 -0.1315485,0.1054958 -0.036272,0.041025 -0.094097,0.073537 -0.1406206,0.1121512 -0.043233,0.037705 -0.0868,0.075929 -0.129838,0.1156532 -0.040944,0.039901 -0.1011619,0.045643 -0.1421743,0.087746 -0.060236,0.010366 -0.099922,0.072387 -0.1405911,0.1222584 -0.052463,0.027199 -0.05577,0.099691 -0.090752,0.1525184 -0.01376,0.052349 -0.066485,0.1058296 -0.099101,0.1603424 -0.029197,0.051805 -0.058395,0.1036191 -0.086904,0.1557737 -0.027207,0.053958 -0.053352,0.1080826 -0.079772,0.1610882 -0.027492,0.055157 0.008,0.1109293 -0.014739,0.1654368 C 6.7746642,4.3113055 6.7231543,4.2341304 6.6778589,4.1991354 6.6320072,4.1293636 6.6059961,4.144093 6.5659461,4.1178725 6.5204409,4.0867413 6.4651031,4.0555721 6.4113912,4.0271807 6.3607647,4.0009047 6.3429063,3.985961 6.287626,3.9624902 6.2608256,3.9471217 6.1530065,3.9052841 6.0825571,3.8827786 6.0267414,3.8609276 5.9713707,3.8470126 5.914561,3.833041 5.8578718,3.8166679 5.7959892,3.7986812 5.7385856,3.7885216 5.6777443,3.770143 5.6187973,3.7625873 5.5635384,3.7572683 c -0.06452,-0.014152 -0.1140207,-0.0277 -0.1674665,-0.02757 -0.056727,1.377e-4 -0.113687,0.018913 -0.1707623,0.019112 -0.05939,2.197e-4 -0.1195859,0.00157 -0.1777885,0.00639 -0.059177,0.00357 -0.1228081,-0.017599 -0.1792871,-0.00843 -0.064511,-0.020206 -0.070958,0.030957 -0.1261145,0.044565 -0.026141,0.027034 -0.1249589,0.043156 -0.1905675,0.066151 -0.045559,0.025835 -0.091579,0.051308 -0.1451096,0.07486 -0.036268,0.034368 -0.068202,0.053317 -0.1207506,0.081297 -0.017942,0.034094 -0.1290995,0.044881 -0.1846925,0.080204 -0.060234,0.010044 -0.076417,0.065082 -0.1202356,0.097197 -0.032021,0.039219 -0.1036233,0.026822 -0.1475712,0.063752 -0.059156,-0.00311 -0.087639,0.083666 -0.1314178,0.1268815 -0.035095,0.042055 -0.048455,0.080014 -0.08537,0.1218366 -0.011053,0.046257 -0.089742,0.082813 -0.1273428,0.1315249 -0.044488,0.034051 -0.046835,0.1001438 -0.07811,0.1466892 -0.011309,0.057117 -0.068549,0.087005 -0.097272,0.1352731 -0.036145,0.041643 -0.058787,0.095336 -0.084471,0.1456051 -0.028408,0.047894 -0.066397,0.065159 -0.088557,0.1171519 -0.042334,0.023747 -0.058748,0.1073222 -0.077975,0.1720264 -0.028301,0.043099 -0.045167,0.089829 -0.056558,0.1522023 -0.025343,0.034304 -0.024008,0.1110079 -0.028181,0.1813515 -0.00902,0.040675 -0.0068,0.089325 -0.00595,0.1567059 8.225e-4,0.064961 0.00447,0.151112 0.00459,0.2035285 1.385e-4,0.060648 0.00409,0.1218488 0.00873,0.1813954 0.00612,0.060179 0.071466,0.127257 0.080338,0.1851101 0.067889,0.060535 0.041592,0.1048858 0.052345,0.1546654 0.035842,0.056181 0.017667,0.052023 0.032096,0.1031952 0.013167,0.017657 0.040809,0.1373015 0.066216,0.2049977 0.01815,0.05081 0.054754,0.1129293 0.077823,0.163921 0.034492,0.054683 0.041131,0.090108 0.064636,0.1348311 0.023866,0.047578 0.084463,0.1050016 0.1134376,0.1522395 0.055741,0.047558 0.050941,0.080003 0.077558,0.1185615 0.031395,0.04493 0.095977,0.094148 0.1293275,0.1363231 0.061591,0.042109 0.056599,0.070043 0.086658,0.1041626 0.034964,0.039894 0.062644,0.066689 0.1011238,0.1047441 0.031605,0.027979 0.1048635,0.089191 0.1505105,0.1276079 0.055259,0.037933 0.080532,0.064951 0.1193106,0.093401 0.047898,0.03493 0.097276,0.0677 0.1416416,0.095148 0.054789,0.034012 0.1061085,0.062461 0.1510159,0.085292 0.062609,0.033104 0.1276208,0.052857 0.1723928,0.070733 0.080783,0.026921 0.068692,0.0022 0.1087596,0.01436 0.04642,-0.010531 0.1245504,0.038483 0.1885581,0.053367 0.057698,0.015277 0.097709,0.00742 0.1554569,0.013997 0.055189,0.00628 0.1654323,0.02936 0.228352,0.02927 0.045186,-3.396e-4 0.1206078,0.0095 0.1552127,0.00517 0.034605,-0.00434 0.028393,-0.041206 0.073215,-0.047062 l 0.1706934,-0.00382 0.2033504,0.0023 0.1482194,-0.00367 0.1761121,-0.04009 0.1796241,0.00318 0.1861072,0.00746 0.1564683,-0.011694 0.1725169,-0.00857 0.2244978,0.015359 0.1277475,-0.00646 0.1730974,-0.00506 0.1819556,0.00194 0.1773735,0.00233 0.1859833,0.00381 0.146922,-0.02518 0.1899093,-0.012367 0.2196989,0.01562 0.1291745,-0.035521 0.1779776,-6.13e-4 0.1756948,0.00507 0.2173723,0.018716 0.1257891,-0.00259 0.2125279,0.01813 0.138864,-2.136e-4 0.1731454,-0.041573 0.1693538,-0.00981 0.238196,0.0131 0.15642,0.014835 0.151594,0.010492 0.181076,0.011144 0.168423,0.011603 0.168267,0.00734 0.211438,0.013596 0.172746,0.012367 0.179105,0.00428 0.191344,0.00994 0.132177,0.011734 0.168679,0.00757 0.162727,-0.00167 0.173728,-0.00744 0.197254,0.016749 0.162142,-8.76e-4 c -0.005,-0.00308 -0.0148,-0.028823 -0.0148,-0.028823 0.06011,-7.01e-5 0.118004,-0.00624 0.176402,-0.012827 0.05721,-0.00937 0.11582,-0.017164 0.172375,-0.029987 0.05571,-0.013497 0.102609,-0.043791 0.156399,-0.062344 0.04535,-0.033969 0.107019,-0.04008 0.158379,-0.064056 0.05039,-0.023524 0.104233,-0.046672 0.151519,-0.075013 0.05166,-0.025172 0.0851,-0.064318 0.128323,-0.096841 0.03761,-0.039318 0.09981,-0.06132 0.14022,-0.09896 0.05245,-0.029151 0.0903,-0.067106 0.125151,-0.1079616 0.04951,-0.033539 0.09297,-0.07439 0.123039,-0.120873 0.0548,-0.035393 0.05706,-0.097988 0.08002,-0.1503577 0.02245,-0.052265 0.09663,-0.1007568 0.112549,-0.1565451 0.07066,-0.050742 0.03053,-0.1095921 0.03177,-0.1694249 0.0095,-0.052774 -0.0098,-0.1232128 -0.01557,-0.1839742 -0.0055,-0.058624 -0.0073,-0.113731 -0.0073,-0.1713209 l 0.0011,-0.00691 c -2.67e-4,-0.060083 0.0013,-0.1155925 -0.0057,-0.1738329 -0.0019,-0.056115 -0.01993,-0.1210487 -0.03395,-0.1786009 -0.01541,-0.057513 -0.03186,-0.1162022 -0.05111,-0.1688139 -0.02073,-0.058296 -0.04919,-0.1212633 -0.07307,-0.1696302 -0.03086,-0.064365 -0.04365,-0.086307 -0.06935,-0.1275749 -0.02817,-0.047782 -0.06506,-0.096491 -0.100254,-0.1406434 -0.03668,-0.045053 -0.07755,-0.096541 -0.116506,-0.1354296 -0.04317,-0.048977 -0.07977,-0.074924 -0.120251,-0.107236 -0.04694,-0.037645 -0.04557,-0.061019 -0.09198,-0.089828 -0.01592,-0.031197 -0.123294,-0.07492 -0.190194,-0.1026942 -0.05304,-0.02806 -0.08154,-0.027289 -0.135948,-0.042799 -0.0378,-0.00502 -0.13913,-0.056056 -0.205802,-0.068652 -0.06833,-0.033775 -0.05887,-3.406e-4 -0.110606,-9.06e-4 -0.05944,-6.496e-4 -0.163967,-0.010352 -0.223758,-0.010135 -0.05039,2.47e-4 -0.100757,0.00289 -0.150857,0.00804 -0.05011,0.00509 -0.0969,0.013214 -0.14624,0.02324 -0.04674,0.010578 -0.100124,0.022134 -0.149425,0.037046 -0.04841,0.014644 -0.08864,0.03706 -0.134629,0.056505 -6.97e-4,-0.060631 -0.0021,-0.1199595 -0.0065,-0.1796342 -0.0033,-0.059159 -0.01214,-0.1743629 -0.02022,-0.2332972 -0.007,-0.095457 -0.01149,-0.080562 -0.01874,-0.1205224 -0.01004,-0.057769 -0.03485,-0.1291252 -0.04885,-0.1857839 -0.02469,-0.064965 -0.01997,-0.097495 -0.03538,-0.1475372 -0.01093,-0.053008 -0.01542,-0.105204 -0.03666,-0.1609724 -8.34e-4,-0.050421 -0.05191,-0.1218325 -0.07853,-0.1791937 -0.02813,-0.05465 -0.05253,-0.1112649 -0.07904,-0.1602444 -0.02956,-0.057982 -0.0565,-0.1118156 -0.08479,-0.1573834 -0.0312,-0.061977 -0.06498,-0.096576 -0.09466,-0.1387502 -0.03972,-0.052909 -0.03775,-0.081512 -0.0707,-0.1228974 -0.01535,-0.045824 -0.07858,-0.098 -0.122153,-0.1451049 -0.03656,-0.042106 -0.06932,-0.077464 -0.111997,-0.1178194 -0.03332,-0.03534 -0.04501,-0.074665 -0.09328,-0.1143059 -0.0086,-0.036337 -0.122934,-0.099875 -0.183156,-0.1414286 -0.05301,-0.040755 -0.08909,-0.060432 -0.13468,-0.088113 -0.04964,-0.031095 -0.08771,-0.055762 -0.138477,-0.082546 -0.0431,-0.026437 -0.09036,-0.050031 -0.146516,-0.075301 -0.03935,-0.020838 -0.06398,-0.04742 -0.124548,-0.070229 -0.01519,-0.022706 -0.104124,-0.037736 -0.178075,-0.059366 -0.02958,-0.00741 -0.117606,-0.028975 -0.188085,-0.045423 -0.04434,-0.00609 -0.09165,-0.015325 -0.15548,-0.027685 -0.03392,-4.772e-4 -0.1455212,-0.035592 -0.2156885,-0.04705 -0.065505,-0.019312 -0.076794,-0.013227 -0.1303562,-0.019211 -0.033735,-0.00427 -0.1539936,-0.038937 -0.2245315,-0.043012 -0.065602,-0.00379 -0.124515,0.00826 -0.1765139,0.00843 z"
           inkscape:path-effect="#path-effect5270"
           inkscape:original-d="M 9.389091,2.5812378 A 2.8710701,2.8710701 0 0 0 6.7515259,4.3470215 2.260253,2.3075662 0 0 0 5.2296549,3.7527425 2.260253,2.3075662 0 0 0 2.977596,6.0657796 2.260253,2.3075662 0 0 0 5.2410238,8.3679647 2.260253,2.3075662 0 0 0 5.5112915,8.3493612 h 7.3504555 a 1.5251989,1.5251989 0 0 0 0.0016,0 1.5251989,1.5251989 0 0 0 1.523421,-1.5249716 v -0.00775 A 1.5251989,1.5251989 0 0 0 12.856063,5.2989014 1.5251989,1.5251989 0 0 0 12.269535,5.4193075 2.8710701,2.8710701 0 0 0 9.389091,2.5812378 Z" />
      </g>
      <path
         style="fill:none;fill-opacity:1;stroke:#ffffff;stroke-width:0.79375;stroke-linecap:round;stroke-linejoin:round;stroke-dasharray:none;stroke-opacity:1;paint-order:markers fill stroke"
         d="m 6.1195471,10.349222 -0.079124,0.153212 -0.053964,0.159103 -0.1037148,0.16139 -0.087611,0.156537 -0.1059796,0.108612 -0.1025975,0.177732 -0.07799,0.160093 -0.080165,0.157621 -0.1019446,0.140495 -0.084772,0.159412 -0.092061,0.150394 -0.074763,0.160058"
         id="path5260"
         inkscape:original-d="m 6.1195471,10.349222 -1.0603558,1.83659" />
      <path
         style="fill:none;fill-opacity:1;stroke:#ffffff;stroke-width:0.79375;stroke-linecap:round;stroke-linejoin:round;stroke-dasharray:none;stroke-opacity:1;paint-order:markers fill stroke"
         d="m 11.913474,10.349222 -0.09025,0.114968 -0.09198,0.18664 -0.08861,0.153556 -0.103689,0.126134 -0.09624,0.153204 -0.08866,0.168366 -0.0853,0.153875 -0.09141,0.149034 -0.08077,0.160411 -0.07813,0.15763 -0.07985,0.157129 -0.08005,0.157156"
         id="path5264"
         inkscape:original-d="m 11.913474,10.349222 -1.060356,1.83659" />
    </g>
  </g>
</svg>
